<svg xmlns="http://www.w3.org/2000/svg" viewBox="0 0 669 451.19"><defs><style>.cls-1,.cls-3{font-size:18px;font-family:KozGoPr6N-Regular-83pv-RKSJ-H, Kozuka Gothic Pr6N;}.cls-1,.cls-4{letter-spacing:0.02em;}.cls-2{font-size:24px;fill:#479ef7;font-family:KozGoPr6N-Medium-83pv-RKSJ-H, Kozuka Gothic Pr6N;letter-spacing:0.03em;}.cls-3{letter-spacing:0.27em;}.cls-5,.cls-7{fill:none;stroke-miterlimit:10;}.cls-5{stroke:#000;}.cls-6{fill:#666;}.cls-7{stroke:#666;}.cls-8{fill:#61b3f9;}</style></defs><g id="レイヤー_2" data-name="レイヤー 2"><g id="レイヤー_1-2" data-name="レイヤー 1"><text class="cls-1" transform="translate(113.16 445.09)">導入前</text><text class="cls-1" transform="translate(23.02 412.84)">０</text><text class="cls-1" transform="translate(10.37 346.67)">500</text><text class="cls-1" transform="translate(0 280.51)">1000</text><text class="cls-1" transform="translate(0 214.34)">1500</text><text class="cls-1" transform="translate(0 148.17)">2000</text><text class="cls-1" transform="translate(0 82.01)">2500</text><text class="cls-1" transform="translate(0 15.84)">3000</text><text class="cls-2" transform="translate(167 377.84)">395</text><text class="cls-2" transform="translate(300 324.84)">802</text><text class="cls-2" transform="translate(424 244.84)">1480</text><text class="cls-2" transform="translate(587 55.84)">2719</text><text class="cls-3" transform="translate(243.16 445.09)">3<tspan class="cls-4" x="14.87" y="0">か月後</tspan></text><text class="cls-3" transform="translate(378.3 445.09)">6<tspan class="cls-4" x="14.87" y="0">か月後</tspan></text><text class="cls-3" transform="translate(545.06 445.09)">1<tspan class="cls-4" x="14.87" y="0">年後</tspan></text><line class="cls-5" x1="52" y1="408.34" x2="669" y2="408.34"/><line class="cls-5" x1="52" y1="342.84" x2="669" y2="342.84"/><line class="cls-5" x1="52" y1="277.34" x2="669" y2="277.34"/><line class="cls-5" x1="52" y1="211.84" x2="669" y2="211.84"/><line class="cls-5" x1="52" y1="146.34" x2="669" y2="146.34"/><line class="cls-5" x1="52" y1="80.84" x2="669" y2="80.84"/><line class="cls-5" x1="52" y1="15.34" x2="669" y2="15.34"/><circle class="cls-6" cx="140.84" cy="366.34" r="5"/><circle class="cls-6" cx="278.27" cy="309.34" r="5"/><circle class="cls-6" cx="413.41" cy="220.34" r="5"/><circle class="cls-6" cx="570.94" cy="43.34" r="5"/><line class="cls-7" x1="139.5" y1="365.84" x2="277.5" y2="308.84"/><line class="cls-7" x1="277.5" y1="308.84" x2="413.5" y2="219.84"/><line class="cls-7" x1="412.5" y1="219.84" x2="569.5" y2="45.84"/><rect class="cls-8" x="90.62" y="184.07" width="376.64" height="29.8" transform="translate(-63.04 220.04) rotate(-39.03)"/><polygon class="cls-8" points="469.3 37.34 390.29 48.49 458.15 116.36 469.3 37.34"/></g></g></svg>