<?xml version="1.0" encoding="utf-8"?>
<!-- Generator: Adobe Illustrator 26.1.0, SVG Export Plug-In . SVG Version: 6.00 Build 0)  -->
<svg version="1.1" id="レイヤー_1" xmlns="http://www.w3.org/2000/svg" xmlns:xlink="http://www.w3.org/1999/xlink" x="0px"
	 y="0px" viewBox="0 0 669 451.2" style="enable-background:new 0 0 669 451.2;" xml:space="preserve">
<style type="text/css">
	.st0{enable-background:new    ;}
	.st1{fill:#479EF7;}
	.st2{fill:none;stroke:#000000;stroke-miterlimit:10;}
	.st3{fill:#666666;}
	.st4{fill:none;stroke:#666666;stroke-miterlimit:10;}
	.st5{fill:#61B3F9;}
</style>
<g id="レイヤー_2_00000110447683080968976300000009818356819610911143_">
	<g id="レイヤー_1-2">
		<g class="st0">
			<path d="M118,437.8c0.9,1.5,2.5,1.5,6,1.5c2.3,0,5-0.1,6.7-0.2c-0.2,0.4-0.5,1.2-0.5,1.7c-0.9,0-2,0.1-3.2,0.1
				c-0.1,0.1-0.2,0.2-0.4,0.2v0.5h3.9v1.6h-3.9v1.5c0,1.8-0.8,2.1-4,2.1c-0.1-0.6-0.4-1.3-0.7-1.9c0.6,0,1.2,0.1,1.6,0.1
				c0.8,0,0.9,0,0.9-0.3v-1.4H119c0.7,0.5,1.5,1.1,1.9,1.6l-1.6,1.3c-0.5-0.6-1.5-1.5-2.4-2.1l1-0.8h-4v-1.6h10.6v-0.8
				c-4.2,0-5.8,0-7.1-1.7c-0.9,0.6-1.7,1.2-2.5,1.6c0,0.2-0.1,0.3-0.2,0.3l-0.8-1.8c0.7-0.3,1.5-0.7,2.3-1.2v-2.2H114v-1.6h4.1
				V437.8z M115.8,430c0.9,0.6,2,1.5,2.5,2.2l-1.5,1.3c-0.5-0.7-1.5-1.7-2.4-2.4L115.8,430z M120,433.3h3.1c0.1-0.2,0.1-0.4,0.1-0.6
				h-4.6v-1.5h2.8c-0.2-0.4-0.4-0.8-0.7-1.2l1.8-0.3c0.3,0.4,0.7,1,0.9,1.5h2.3c0.3-0.5,0.6-1.1,0.8-1.5l2.3,0.5
				c-0.1,0.1-0.2,0.2-0.4,0.2c-0.2,0.3-0.4,0.6-0.7,0.8h2.9v1.5h-5.3c-0.1,0.2-0.2,0.4-0.3,0.6h4v5.4H120V433.3z M126.9,434.8v-0.5
				H122v0.5H126.9z M126.9,436.2v-0.6H122v0.6H126.9z M126.9,437.7v-0.6H122v0.6H126.9z"/>
			<path d="M135.6,430.8h6.3c0,3.4,0.5,10.1,7.2,14c-0.5,0.4-1.4,1.3-1.7,1.9c-3.8-2.3-5.7-5.8-6.7-9c-1.3,4.1-3.5,7.2-6.8,9.1
				c-0.4-0.5-1.3-1.3-1.8-1.7c3.7-1.9,5.9-5.5,6.9-10.3l1.1,0.3c-0.1-0.7-0.2-1.4-0.3-2h-4.2V430.8z"/>
			<path d="M165.1,430.6c-0.1,0.1-0.3,0.2-0.5,0.2c-0.4,0.5-1,1.2-1.6,1.7h4.1v2h-16.5v-2h4.2c-0.4-0.6-1.1-1.4-1.6-2l2-0.8
				c0.8,0.7,1.7,1.7,2.1,2.4l-0.9,0.4h5.1l-0.9-0.4c0.6-0.7,1.5-1.7,1.9-2.5L165.1,430.6z M158.5,435.7v8.9c0,1.8-0.9,2.1-3.3,2.1
				c-0.1-0.5-0.4-1.3-0.7-1.8c0.4,0,0.8,0,1.1,0c0.7,0,0.8,0,0.8-0.3v-1.6h-2.6v3.7h-2.1v-11H158.5z M156.4,437.6h-2.6v1.1h2.6
				V437.6z M153.8,441.5h2.6v-1.2h-2.6V441.5z M162.4,436.1c0,0.2-0.1,0.3-0.5,0.3v6.9h-2.1v-7.4L162.4,436.1z M165.9,444.5
				c0,1.9-0.7,2.3-3.9,2.3c-0.1-0.6-0.5-1.5-0.8-2.1c0.6,0,1.2,0.1,1.6,0.1c0.8,0,1,0,1-0.3v-9l2.6,0.1c0,0.2-0.2,0.3-0.5,0.3V444.5
				z"/>
		</g>
		<g class="st0">
			<path d="M26.7,406c0-4.1,1.9-7,5.4-7c3.6,0,5.3,2.9,5.3,7s-1.7,7.1-5.4,7.1C28.2,413.1,26.7,409.7,26.7,406z M34.5,406
				c0-3.2-0.8-4.9-2.4-4.9c-1.5,0-2.4,1.7-2.4,4.9c0,3.4,1,5,2.4,5C33.6,410.9,34.5,409.2,34.5,406z"/>
		</g>
		<g class="st0">
			<path d="M19.2,333v2.2h-4.6l-0.4,2.7c0.3,0,0.5-0.1,0.8-0.1c2.4,0,4.6,1.3,4.6,4.3c0,2.6-2,4.8-5.2,4.8c-1.4,0-2.6-0.3-3.2-0.7
				l0.5-2c0.5,0.3,1.5,0.6,2.6,0.6c1.4,0,2.7-0.9,2.7-2.4c0-1.6-1.2-2.6-3.5-2.6c-0.6,0-1.1,0-1.5,0.1l0.8-6.8H19.2z"/>
			<path d="M21.6,339.9c0-4.1,1.5-7.1,4.6-7.1c3.2,0,4.4,3.2,4.4,7c0,4.5-1.7,7.1-4.5,7.1C23,346.9,21.6,343.7,21.6,339.9z
				 M26.2,344.8c1.2,0,1.8-1.7,1.8-4.9c0-3.1-0.6-4.9-1.8-4.9c-1.2,0-1.9,1.7-1.9,4.9C24.3,343.1,25,344.8,26.2,344.8L26.2,344.8z"
				/>
			<path d="M32.3,339.9c0-4.1,1.5-7.1,4.6-7.1c3.2,0,4.4,3.2,4.4,7c0,4.5-1.7,7.1-4.5,7.1C33.6,346.9,32.3,343.7,32.3,339.9z
				 M36.8,344.8c1.2,0,1.8-1.7,1.8-4.9c0-3.1-0.6-4.9-1.8-4.9c-1.2,0-1.9,1.7-1.9,4.9C34.9,343.1,35.6,344.8,36.8,344.8L36.8,344.8z
				"/>
		</g>
		<g class="st0">
			<path d="M4.5,280.5v-11.2h0l-2.3,1.2l-0.6-1.9l3.3-1.7h2.2v13.6H4.5z"/>
			<path d="M11.3,273.7c0-4.1,1.5-7.1,4.6-7.1c3.2,0,4.4,3.2,4.4,7c0,4.5-1.7,7.1-4.5,7.1C12.6,280.7,11.3,277.5,11.3,273.7z
				 M15.8,278.6c1.2,0,1.8-1.7,1.8-4.9c0-3.1-0.6-4.9-1.8-4.9c-1.2,0-1.9,1.7-1.9,4.9C13.9,276.9,14.6,278.6,15.8,278.6L15.8,278.6z
				"/>
			<path d="M21.9,273.7c0-4.1,1.5-7.1,4.6-7.1c3.2,0,4.4,3.2,4.4,7c0,4.5-1.7,7.1-4.5,7.1C23.2,280.7,21.9,277.5,21.9,273.7z
				 M26.4,278.6c1.2,0,1.8-1.7,1.8-4.9c0-3.1-0.6-4.9-1.8-4.9c-1.2,0-1.9,1.7-1.9,4.9C24.6,276.9,25.2,278.6,26.4,278.6L26.4,278.6z
				"/>
			<path d="M32.5,273.7c0-4.1,1.5-7.1,4.6-7.1c3.2,0,4.4,3.2,4.4,7c0,4.5-1.7,7.1-4.5,7.1C33.9,280.7,32.5,277.5,32.5,273.7z
				 M37.1,278.6c1.2,0,1.8-1.7,1.8-4.9c0-3.1-0.6-4.9-1.8-4.9c-1.2,0-1.9,1.7-1.9,4.9C35.2,276.9,35.9,278.6,37.1,278.6L37.1,278.6z
				"/>
		</g>
		<g class="st0">
			<path d="M4.5,214.3v-11.2h0l-2.3,1.2l-0.6-1.9l3.3-1.7h2.2v13.6H4.5z"/>
			<path d="M19.5,200.7v2.2h-4.6l-0.4,2.7c0.3,0,0.5-0.1,0.8-0.1c2.4,0,4.6,1.3,4.6,4.3c0,2.6-2,4.8-5.2,4.8c-1.4,0-2.6-0.3-3.2-0.7
				l0.5-2c0.5,0.3,1.5,0.6,2.6,0.6c1.4,0,2.7-0.9,2.7-2.4c0-1.6-1.2-2.6-3.5-2.6c-0.6,0-1.1,0-1.5,0.1l0.8-6.8H19.5z"/>
			<path d="M21.9,207.6c0-4.1,1.5-7.1,4.6-7.1c3.2,0,4.4,3.2,4.4,7c0,4.5-1.7,7.1-4.5,7.1C23.2,214.5,21.9,211.4,21.9,207.6z
				 M26.4,212.4c1.2,0,1.8-1.7,1.8-4.9c0-3.1-0.6-4.9-1.8-4.9c-1.2,0-1.9,1.7-1.9,4.9C24.6,210.7,25.2,212.4,26.4,212.4L26.4,212.4z
				"/>
			<path d="M32.5,207.6c0-4.1,1.5-7.1,4.6-7.1c3.2,0,4.4,3.2,4.4,7c0,4.5-1.7,7.1-4.5,7.1C33.9,214.5,32.5,211.4,32.5,207.6z
				 M37.1,212.4c1.2,0,1.8-1.7,1.8-4.9c0-3.1-0.6-4.9-1.8-4.9c-1.2,0-1.9,1.7-1.9,4.9C35.2,210.7,35.9,212.4,37.1,212.4L37.1,212.4z
				"/>
		</g>
		<g class="st0">
			<path d="M9.3,148.2H0.8v-1.6l1.5-1.6c2.6-2.7,4.1-4.4,4.1-6.2c0-1.2-0.6-2.2-2.1-2.2c-1,0-1.9,0.5-2.5,1L1,135.6
				c0.8-0.6,2.3-1.2,3.8-1.2c2.9,0,4.2,1.9,4.2,4.1c0,2.4-1.6,4.4-3.6,6.4l-1.1,1.1v0h5V148.2z"/>
			<path d="M11.3,141.4c0-4.1,1.5-7.1,4.6-7.1c3.2,0,4.4,3.2,4.4,7c0,4.5-1.7,7.1-4.5,7.1C12.6,148.4,11.3,145.2,11.3,141.4z
				 M15.8,146.3c1.2,0,1.8-1.7,1.8-4.9c0-3.1-0.6-4.9-1.8-4.9c-1.2,0-1.9,1.7-1.9,4.9C13.9,144.6,14.6,146.3,15.8,146.3L15.8,146.3z
				"/>
			<path d="M21.9,141.4c0-4.1,1.5-7.1,4.6-7.1c3.2,0,4.4,3.2,4.4,7c0,4.5-1.7,7.1-4.5,7.1C23.2,148.4,21.9,145.2,21.9,141.4z
				 M26.4,146.3c1.2,0,1.8-1.7,1.8-4.9c0-3.1-0.6-4.9-1.8-4.9c-1.2,0-1.9,1.7-1.9,4.9C24.6,144.6,25.2,146.3,26.4,146.3L26.4,146.3z
				"/>
			<path d="M32.5,141.4c0-4.1,1.5-7.1,4.6-7.1c3.2,0,4.4,3.2,4.4,7c0,4.5-1.7,7.1-4.5,7.1C33.9,148.4,32.5,145.2,32.5,141.4z
				 M37.1,146.3c1.2,0,1.8-1.7,1.8-4.9c0-3.1-0.6-4.9-1.8-4.9c-1.2,0-1.9,1.7-1.9,4.9C35.2,144.6,35.9,146.3,37.1,146.3L37.1,146.3z
				"/>
		</g>
		<g class="st0">
			<path d="M9.3,82H0.8v-1.6l1.5-1.6c2.6-2.7,4.1-4.4,4.1-6.2c0-1.2-0.6-2.2-2.1-2.2c-1,0-1.9,0.5-2.5,1L1,69.4
				c0.8-0.6,2.3-1.2,3.8-1.2C7.7,68.2,9,70,9,72.3c0,2.4-1.6,4.4-3.6,6.4l-1.1,1.1v0h5V82z"/>
			<path d="M19.5,68.4v2.2h-4.6l-0.4,2.7c0.3,0,0.5-0.1,0.8-0.1c2.4,0,4.6,1.3,4.6,4.3c0,2.6-2,4.8-5.2,4.8c-1.4,0-2.6-0.3-3.2-0.7
				l0.5-2c0.5,0.3,1.5,0.6,2.6,0.6c1.4,0,2.7-0.9,2.7-2.4c0-1.6-1.2-2.6-3.5-2.6c-0.6,0-1.1,0-1.5,0.1l0.8-6.8H19.5z"/>
			<path d="M21.9,75.2c0-4.1,1.5-7.1,4.6-7.1c3.2,0,4.4,3.2,4.4,7c0,4.5-1.7,7.1-4.5,7.1C23.2,82.2,21.9,79,21.9,75.2z M26.4,80.1
				c1.2,0,1.8-1.7,1.8-4.9c0-3.1-0.6-4.9-1.8-4.9c-1.2,0-1.9,1.7-1.9,4.9C24.6,78.4,25.2,80.1,26.4,80.1L26.4,80.1z"/>
			<path d="M32.5,75.2c0-4.1,1.5-7.1,4.6-7.1c3.2,0,4.4,3.2,4.4,7c0,4.5-1.7,7.1-4.5,7.1C33.9,82.2,32.5,79,32.5,75.2z M37.1,80.1
				c1.2,0,1.8-1.7,1.8-4.9c0-3.1-0.6-4.9-1.8-4.9c-1.2,0-1.9,1.7-1.9,4.9C35.2,78.4,35.9,80.1,37.1,80.1L37.1,80.1z"/>
		</g>
		<g class="st0">
			<path d="M6.3,8.5c1.5,0.3,2.8,1.6,2.8,3.4c0,2.3-1.8,4.1-5,4.1c-1.4,0-2.7-0.4-3.4-0.8l0.6-2c0.5,0.3,1.6,0.7,2.6,0.7
				c1.6,0,2.4-1,2.4-2.1c0-1.5-1.3-2.3-2.8-2.3H2.7V7.7h0.9C4.6,7.7,6,7.1,6,5.8c0-1-0.6-1.7-1.9-1.7c-0.9,0-1.9,0.4-2.4,0.7
				L1.1,2.9C1.8,2.5,3.2,2,4.7,2c2.6,0,4,1.5,4,3.3C8.7,6.7,7.8,7.9,6.3,8.5L6.3,8.5z"/>
			<path d="M11.3,9.1c0-4.1,1.5-7.1,4.6-7.1c3.2,0,4.4,3.2,4.4,7c0,4.5-1.7,7.1-4.5,7.1C12.6,16,11.3,12.9,11.3,9.1z M15.8,13.9
				c1.2,0,1.8-1.7,1.8-4.9c0-3.1-0.6-4.9-1.8-4.9c-1.2,0-1.9,1.7-1.9,4.9C13.9,12.2,14.6,13.9,15.8,13.9L15.8,13.9z"/>
			<path d="M21.9,9.1c0-4.1,1.5-7.1,4.6-7.1c3.2,0,4.4,3.2,4.4,7c0,4.5-1.7,7.1-4.5,7.1C23.2,16,21.9,12.9,21.9,9.1z M26.4,13.9
				c1.2,0,1.8-1.7,1.8-4.9c0-3.1-0.6-4.9-1.8-4.9c-1.2,0-1.9,1.7-1.9,4.9C24.6,12.2,25.2,13.9,26.4,13.9L26.4,13.9z"/>
			<path d="M32.5,9.1c0-4.1,1.5-7.1,4.6-7.1c3.2,0,4.4,3.2,4.4,7c0,4.5-1.7,7.1-4.5,7.1C33.9,16,32.5,12.9,32.5,9.1z M37.1,13.9
				c1.2,0,1.8-1.7,1.8-4.9c0-3.1-0.6-4.9-1.8-4.9c-1.2,0-1.9,1.7-1.9,4.9C35.2,12.2,35.9,13.9,37.1,13.9L37.1,13.9z"/>
		</g>
		<g class="st0">
			<path class="st1" d="M175,368.1c2,0.4,3.8,2,3.8,4.6c0,3-2.3,5.4-6.4,5.4c-1.9,0-3.6-0.6-4.4-1.1l0.7-2.1c0.6,0.4,2.1,1,3.6,1
				c2.6,0,3.6-1.7,3.6-3.3c0-2.3-2-3.4-4.1-3.4h-1.2v-2h1.2c1.6,0,3.6-0.9,3.6-2.9c0-1.4-0.9-2.5-2.8-2.5c-1.3,0-2.5,0.6-3.2,1.1
				l-0.7-2c0.9-0.7,2.7-1.3,4.5-1.3c3.4,0,5,2,5,4.3C178.2,365.7,177.1,367.3,175,368.1L175,368.1z"/>
			<path class="st1" d="M190.9,369.7c-0.9,1-2.1,1.7-3.7,1.7c-2.9,0-5-2.3-5-5.5c0-3.4,2.3-6.4,5.9-6.4c3.7,0,5.8,3.1,5.8,7.6
				c0,5.8-2.9,10.3-8.2,10.9c-0.7,0.1-1.5,0.1-2,0.1v-2.2c0.5,0,1,0,1.8-0.1C189.3,375.2,190.6,371.9,190.9,369.7L190.9,369.7z
				 M185,365.7c0,2.1,1.1,3.7,2.9,3.7c1.3,0,2.4-0.8,2.9-1.7c0.1-0.2,0.2-0.6,0.2-1.1c0-3-1-5.1-3.1-5.1
				C186.2,361.5,185,363.2,185,365.7z"/>
			<path class="st1" d="M206.8,359.8v2.3h-6.3l-0.6,4.3c0.4,0,0.7-0.1,1.2-0.1c3.3,0,6.1,1.9,6.1,5.6c0,3.5-2.7,6.2-6.6,6.2
				c-1.8,0-3.4-0.5-4.2-1l0.6-2.1c0.7,0.4,2,0.9,3.5,0.9c2,0,3.9-1.4,3.9-3.7c0-2.3-1.6-3.8-4.8-3.8c-0.9,0-1.6,0-2.2,0.1l1.1-8.7
				H206.8z"/>
		</g>
		<g class="st0">
			<path class="st1" d="M304.2,315.3c-1.8-0.9-2.7-2.5-2.7-4c0-2.9,2.3-4.8,5.4-4.8c3.5,0,5.1,2.3,5.1,4.5c0,1.5-0.8,3.2-2.8,4.2
				v0.1c2,0.9,3.4,2.4,3.4,4.7c0,3.1-2.5,5.3-5.9,5.3c-3.7,0-5.7-2.3-5.7-4.8C300.9,318,302.3,316.3,304.2,315.3L304.2,315.3z
				 M309.8,320.1c0-2-1.3-3.1-3.3-3.8c-1.8,0.6-2.7,2-2.7,3.6c0,1.8,1.2,3.2,3,3.2C308.7,323.1,309.8,321.8,309.8,320.1z
				 M304.2,311.1c0,1.7,1.2,2.6,2.9,3.2c1.2-0.5,2.3-1.7,2.3-3.1c0-1.4-0.7-2.8-2.5-2.8C305,308.4,304.2,309.7,304.2,311.1z"/>
			<path class="st1" d="M315.1,315.8c0-5.9,2.2-9.4,6-9.4c3.8,0,5.7,3.7,5.7,9.2c0,6.1-2.2,9.5-5.9,9.5
				C317.1,325.1,315.1,321.4,315.1,315.8z M324,315.7c0-4.3-0.9-7.1-3-7.1c-1.8,0-3.1,2.5-3.1,7.1c0,4.5,1.1,7.1,3,7.1
				C323.3,322.9,324,319.5,324,315.7z"/>
			<path class="st1" d="M340.5,324.8h-11v-1.7l1.9-2c3.8-3.9,5.9-6.4,5.9-9.1c0-1.8-0.8-3.3-3.1-3.3c-1.4,0-2.6,0.7-3.5,1.4l-0.8-2
				c1.1-0.9,2.9-1.7,4.9-1.7c3.7,0,5.4,2.5,5.4,5.3c0,3.3-2.3,6.1-5.4,9.2l-1.5,1.5v0h7.3V324.8z"/>
		</g>
		<g class="st0">
			<path class="st1" d="M430.1,244.8v-15.5h0l-3,1.7l-0.6-2l4.1-2.2h2.4v18.1H430.1z"/>
			<path class="st1" d="M448.9,244.8h-2.6v-4.8h-7.6v-1.8l7.1-11.5h3.1V238h2.3v2.1h-2.3V244.8z M441.3,238h4.9v-5.4
				c0-1,0-2.1,0.1-3.1h-0.1c-0.6,1.2-1,2-1.5,3L441.3,238L441.3,238z"/>
			<path class="st1" d="M456.6,235.3c-1.8-0.9-2.7-2.5-2.7-4c0-2.9,2.3-4.8,5.4-4.8c3.5,0,5.1,2.3,5.1,4.5c0,1.5-0.8,3.2-2.8,4.2
				v0.1c2,0.9,3.4,2.4,3.4,4.7c0,3.1-2.5,5.3-5.9,5.3c-3.7,0-5.7-2.3-5.7-4.8C453.3,238,454.7,236.3,456.6,235.3L456.6,235.3z
				 M462.1,240.1c0-2-1.3-3.1-3.3-3.8c-1.8,0.6-2.7,2-2.7,3.6c0,1.8,1.2,3.2,3,3.2C461,243.1,462.1,241.8,462.1,240.1z M456.6,231.1
				c0,1.7,1.2,2.6,2.9,3.2c1.2-0.5,2.3-1.7,2.3-3.1c0-1.4-0.7-2.8-2.5-2.8C457.4,228.4,456.6,229.7,456.6,231.1z"/>
			<path class="st1" d="M467.4,235.8c0-5.9,2.2-9.4,6-9.4c3.8,0,5.7,3.7,5.7,9.2c0,6.1-2.2,9.5-5.9,9.5
				C469.5,245.1,467.4,241.4,467.4,235.8z M476.3,235.7c0-4.3-0.9-7.1-3-7.1c-1.8,0-3.1,2.5-3.1,7.1c0,4.5,1.1,7.1,3,7.1
				C475.6,242.9,476.3,239.5,476.3,235.7z"/>
		</g>
		<g class="st0">
			<path class="st1" d="M599.1,55.8h-11v-1.7l1.9-2c3.8-3.9,5.9-6.4,5.9-9.1c0-1.8-0.8-3.3-3.1-3.3c-1.4,0-2.6,0.7-3.5,1.4l-0.8-2
				c1.1-0.9,2.9-1.7,4.9-1.7c3.7,0,5.4,2.5,5.4,5.3c0,3.3-2.3,6.1-5.4,9.2l-1.5,1.5v0h7.3V55.8z"/>
			<path class="st1" d="M602.6,37.8h10.9v1.8l-7.2,16.3h-2.9l7.2-15.7v0h-8.1V37.8z"/>
			<path class="st1" d="M621.5,55.8V40.3h0l-3,1.7l-0.6-2l4.1-2.2h2.4v18.1H621.5z"/>
			<path class="st1" d="M639.3,47.7c-0.9,1-2.1,1.7-3.7,1.7c-2.9,0-5-2.3-5-5.5c0-3.4,2.3-6.4,5.9-6.4c3.7,0,5.8,3.1,5.8,7.6
				c0,5.8-2.9,10.3-8.2,10.9c-0.7,0.1-1.5,0.1-2,0.1v-2.2c0.5,0,1,0,1.8-0.1C637.7,53.2,639,49.9,639.3,47.7L639.3,47.7z
				 M633.3,43.7c0,2.1,1.1,3.7,2.9,3.7c1.3,0,2.4-0.8,2.9-1.7c0.1-0.2,0.2-0.6,0.2-1.1c0-3-1-5.1-3.1-5.1
				C634.5,39.5,633.3,41.2,633.3,43.7z"/>
		</g>
		<g class="st0">
			<path d="M249.5,437.8c1.5,0.3,2.8,1.6,2.8,3.4c0,2.3-1.8,4.1-5,4.1c-1.4,0-2.7-0.4-3.4-0.8l0.6-2c0.5,0.3,1.6,0.7,2.6,0.7
				c1.6,0,2.4-1,2.4-2.1c0-1.5-1.3-2.3-2.8-2.3h-0.9v-1.9h0.9c1.1,0,2.4-0.6,2.4-1.9c0-1-0.6-1.7-1.9-1.7c-0.9,0-1.9,0.4-2.4,0.7
				l-0.6-1.9c0.7-0.5,2.1-0.9,3.5-0.9c2.6,0,4,1.5,4,3.3C251.8,436,251,437.2,249.5,437.8L249.5,437.8z"/>
		</g>
		<g class="st0">
			<path d="M266.2,430.7c0,0.3-0.3,0.3-0.6,0.4c-0.2,0.9-0.4,2.4-0.6,3.5c0.5-0.1,1.1-0.1,1.5-0.1c3,0,3.9,2.1,3.9,4.9v0
				c-0.1,4-1.2,6.8-3.9,6.8c-0.7,0-1.8-0.3-3.2-1.5c0.3-0.6,0.6-1.3,0.8-1.9c1.2,0.9,1.9,1.1,2.4,1.1c0.8,0,1.1-0.6,1.4-1.6
				c0.2-0.8,0.4-2.3,0.4-3c0-1.8-0.6-2.7-1.8-2.7c-0.4,0-1,0-1.7,0.1c-0.8,3.3-1.8,6.5-3.3,9.4l-2.1-1c1.5-2.7,2.4-5.2,3.1-8.1
				c-0.6,0.1-1.9,0.3-2.7,0.4l-0.2-2.2l3.3-0.4c0.2-1.3,0.5-2.8,0.6-4.3L266.2,430.7z M273.1,439.5c-0.4-2.4-2-4.6-3.6-6l1.7-1.2
				c1.9,1.4,3.7,4.1,4.1,6.3L273.1,439.5z"/>
			<path d="M291,430.6V444c0,2.4-1.1,2.7-5.2,2.7c-0.1-0.6-0.6-1.7-0.9-2.3c0.8,0.1,1.8,0.1,2.5,0.1c1.2,0,1.3,0,1.3-0.5v-2.8h-7.6
				c-0.5,2.1-1.5,4.1-3.4,5.6c-0.3-0.5-1.2-1.3-1.6-1.6c3-2.3,3.3-5.8,3.3-8.6v-6H291z M281.6,437c0,0.7-0.1,1.4-0.1,2.2h7.2V437
				H281.6z M288.7,432.7h-7.1v2.2h7.1V432.7z"/>
			<path d="M296,439.6c-0.5,0.6-1,1.1-1.5,1.5c-0.2-0.5-0.7-1.5-1-1.9c1.4-1.2,3.1-3.3,4.2-5.3l2.2,0.9c-0.1,0.1-0.3,0.2-0.5,0.2
				c-0.4,0.7-0.8,1.4-1.3,2l0.4,0.1c-0.1,0.1-0.2,0.3-0.5,0.3v9.3h-2V439.6z M299.4,430.7c-0.1,0.1-0.2,0.2-0.5,0.2
				c-1,1.4-2.6,3.3-4.1,4.5c-0.3-0.5-0.8-1.2-1.2-1.6c1.3-1,2.7-2.7,3.4-3.9L299.4,430.7z M307.9,439.3l1.4,0.6
				c-0.1,0.1-0.1,0.2-0.2,0.3c-0.6,1.4-1.5,2.6-2.6,3.5c1.3,0.6,2.8,1,4.5,1.3c-0.5,0.4-1,1.3-1.3,1.8c-1.9-0.4-3.6-1-5-1.8
				c-1.5,0.8-3.1,1.4-4.9,1.8c-0.2-0.5-0.7-1.4-1-1.8c1.5-0.3,2.9-0.7,4.2-1.3c-0.5-0.5-1-1-1.5-1.5c-0.5,0.4-1,0.8-1.5,1.1
				c-0.3-0.4-0.9-1.2-1.3-1.5c1.4-0.8,2.9-2,3.9-3.3l-2.8,0.1c-0.1,0.2-0.2,0.3-0.3,0.3l-0.6-2.3c0.8,0,1.7,0,2.7,0
				c0.3-0.2,0.5-0.4,0.8-0.6c-0.8-0.9-2.1-1.9-3.2-2.6l1.3-1.4c0.3,0.2,0.6,0.4,0.9,0.6c0.7-0.8,1.5-1.9,2-2.7l2.1,1.1
				c-0.1,0.1-0.3,0.2-0.5,0.2c-0.5,0.7-1.5,1.7-2.2,2.5c0.4,0.3,0.8,0.7,1.1,1c1.2-1.1,2.3-2.3,3.1-3.3l2.2,1.2
				c-0.1,0.1-0.3,0.2-0.6,0.2c-1.1,1.2-2.7,2.7-4.3,4l3.3-0.1c-0.3-0.4-0.6-0.8-0.9-1.2l1.7-0.9c1.1,1.2,2.3,2.8,2.8,4l-1.8,1
				c-0.1-0.3-0.3-0.8-0.6-1.2l-3.3,0.2c-0.1,0.1-0.2,0.2-0.5,0.2c-0.2,0.3-0.5,0.6-0.7,1h3.5L307.9,439.3z M302.8,441
				c0.5,0.6,1.1,1.2,1.8,1.7c0.7-0.5,1.3-1.1,1.7-1.7H302.8z"/>
		</g>
		<g class="st0">
			<path d="M381.6,437.3c0.6-0.7,1.5-1.2,2.7-1.2c2.1,0,3.7,1.6,3.7,4.3c0,2.6-1.7,4.8-4.4,4.8c-3.1,0-4.7-2.5-4.7-5.8
				c0-3.1,1.4-8.2,7.9-8.2v2.1c-0.3,0-0.7,0-1.2,0.1C383.1,433.8,381.9,435.5,381.6,437.3L381.6,437.3z M385.4,440.6
				c0-1.4-0.7-2.6-1.9-2.6c-0.8,0-1.9,0.7-1.9,2.2c0,1.8,0.8,3.2,2.1,3.2C384.8,443.4,385.4,442.1,385.4,440.6z"/>
		</g>
		<g class="st0">
			<path d="M401.3,430.7c0,0.3-0.3,0.3-0.6,0.4c-0.2,0.9-0.4,2.4-0.6,3.5c0.5-0.1,1.1-0.1,1.5-0.1c3,0,3.9,2.1,3.9,4.9v0
				c-0.1,4-1.2,6.8-3.9,6.8c-0.7,0-1.8-0.3-3.2-1.5c0.3-0.6,0.6-1.3,0.8-1.9c1.2,0.9,1.9,1.1,2.4,1.1c0.8,0,1.1-0.6,1.4-1.6
				c0.2-0.8,0.4-2.3,0.4-3c0-1.8-0.6-2.7-1.8-2.7c-0.4,0-1,0-1.7,0.1c-0.8,3.3-1.8,6.5-3.3,9.4l-2.1-1c1.5-2.7,2.4-5.2,3.1-8.1
				c-0.6,0.1-1.9,0.3-2.7,0.4l-0.2-2.2l3.3-0.4c0.2-1.3,0.5-2.8,0.6-4.3L401.3,430.7z M408.3,439.5c-0.4-2.4-2-4.6-3.6-6l1.7-1.2
				c1.9,1.4,3.7,4.1,4.1,6.3L408.3,439.5z"/>
			<path d="M426.1,430.6V444c0,2.4-1.1,2.7-5.2,2.7c-0.1-0.6-0.6-1.7-0.9-2.3c0.8,0.1,1.8,0.1,2.5,0.1c1.2,0,1.3,0,1.3-0.5v-2.8
				h-7.6c-0.5,2.1-1.5,4.1-3.4,5.6c-0.3-0.5-1.2-1.3-1.6-1.6c3-2.3,3.3-5.8,3.3-8.6v-6H426.1z M416.7,437c0,0.7-0.1,1.4-0.1,2.2h7.2
				V437H416.7z M423.8,432.7h-7.1v2.2h7.1V432.7z"/>
			<path d="M431.2,439.6c-0.5,0.6-1,1.1-1.5,1.5c-0.2-0.5-0.7-1.5-1-1.9c1.4-1.2,3.1-3.3,4.2-5.3l2.2,0.9c-0.1,0.1-0.3,0.2-0.5,0.2
				c-0.4,0.7-0.8,1.4-1.3,2l0.4,0.1c-0.1,0.1-0.2,0.3-0.5,0.3v9.3h-2V439.6z M434.5,430.7c-0.1,0.1-0.2,0.2-0.5,0.2
				c-1,1.4-2.6,3.3-4.1,4.5c-0.3-0.5-0.8-1.2-1.2-1.6c1.3-1,2.7-2.7,3.4-3.9L434.5,430.7z M443.1,439.3l1.4,0.6
				c-0.1,0.1-0.1,0.2-0.2,0.3c-0.6,1.4-1.5,2.6-2.6,3.5c1.3,0.6,2.8,1,4.5,1.3c-0.5,0.4-1,1.3-1.3,1.8c-1.9-0.4-3.6-1-5-1.8
				c-1.5,0.8-3.1,1.4-4.9,1.8c-0.2-0.5-0.7-1.4-1-1.8c1.5-0.3,2.9-0.7,4.2-1.3c-0.5-0.5-1-1-1.5-1.5c-0.5,0.4-1,0.8-1.5,1.1
				c-0.3-0.4-0.9-1.2-1.3-1.5c1.4-0.8,2.9-2,3.9-3.3l-2.8,0.1c-0.1,0.2-0.2,0.3-0.3,0.3l-0.6-2.3c0.8,0,1.7,0,2.7,0
				c0.3-0.2,0.5-0.4,0.8-0.6c-0.8-0.9-2.1-1.9-3.2-2.6l1.3-1.4c0.3,0.2,0.6,0.4,0.9,0.6c0.7-0.8,1.5-1.9,2-2.7l2.1,1.1
				c-0.1,0.1-0.3,0.2-0.5,0.2c-0.5,0.7-1.5,1.7-2.2,2.5c0.4,0.3,0.8,0.7,1.1,1c1.2-1.1,2.3-2.3,3.1-3.3l2.2,1.2
				c-0.1,0.1-0.3,0.2-0.6,0.2c-1.1,1.2-2.7,2.7-4.3,4l3.3-0.1c-0.3-0.4-0.6-0.8-0.9-1.2l1.7-0.9c1.1,1.2,2.3,2.8,2.8,4l-1.8,1
				c-0.1-0.3-0.3-0.8-0.6-1.2l-3.3,0.2c-0.1,0.1-0.2,0.2-0.5,0.2c-0.2,0.3-0.5,0.6-0.7,1h3.5L443.1,439.3z M438,441
				c0.5,0.6,1.1,1.2,1.8,1.7c0.7-0.5,1.3-1.1,1.7-1.7H438z"/>
		</g>
		<g class="st0">
			<path d="M549.5,445.1v-11.2h0l-2.3,1.2l-0.6-1.9l3.3-1.7h2.2v13.6H549.5z"/>
		</g>
		<g class="st0">
			<path d="M577.3,440.8v2.1H571v3.8h-2.2v-3.8h-8.2v-2.1h2.9v-4.8h5.3v-2.2h-4c-0.8,1.3-1.7,2.5-2.7,3.4c-0.4-0.4-1.2-1.1-1.7-1.5
				c1.6-1.4,3.1-3.8,3.9-6.1l2.6,0.8c-0.1,0.1-0.3,0.2-0.5,0.2c-0.1,0.4-0.3,0.7-0.5,1.1h10.3v2.1H571v2.2h4.8v2H571v2.7H577.3z
				 M565.7,440.8h3.2v-2.7h-3.2V440.8z"/>
			<path d="M581,439.6c-0.5,0.6-1,1.1-1.5,1.5c-0.2-0.5-0.7-1.5-1-1.9c1.4-1.2,3.1-3.3,4.2-5.3l2.2,0.9c-0.1,0.1-0.3,0.2-0.5,0.2
				c-0.4,0.7-0.8,1.4-1.3,2l0.4,0.1c-0.1,0.1-0.2,0.3-0.5,0.3v9.3h-2V439.6z M584.4,430.7c-0.1,0.1-0.2,0.2-0.5,0.2
				c-1,1.4-2.6,3.3-4.1,4.5c-0.3-0.5-0.8-1.2-1.2-1.6c1.3-1,2.7-2.7,3.4-3.9L584.4,430.7z M592.9,439.3l1.4,0.6
				c-0.1,0.1-0.1,0.2-0.2,0.3c-0.6,1.4-1.5,2.6-2.6,3.5c1.3,0.6,2.8,1,4.5,1.3c-0.5,0.4-1,1.3-1.3,1.8c-1.9-0.4-3.6-1-5-1.8
				c-1.5,0.8-3.1,1.4-4.9,1.8c-0.2-0.5-0.7-1.4-1-1.8c1.5-0.3,2.9-0.7,4.2-1.3c-0.5-0.5-1-1-1.5-1.5c-0.5,0.4-1,0.8-1.5,1.1
				c-0.3-0.4-0.9-1.2-1.3-1.5c1.4-0.8,2.9-2,3.9-3.3l-2.8,0.1c-0.1,0.2-0.2,0.3-0.3,0.3l-0.6-2.3c0.8,0,1.7,0,2.7,0
				c0.3-0.2,0.5-0.4,0.8-0.6c-0.8-0.9-2.1-1.9-3.2-2.6l1.3-1.4c0.3,0.2,0.6,0.4,0.9,0.6c0.7-0.8,1.5-1.9,2-2.7l2.1,1.1
				c-0.1,0.1-0.3,0.2-0.5,0.2c-0.5,0.7-1.5,1.7-2.2,2.5c0.4,0.3,0.8,0.7,1.1,1c1.2-1.1,2.3-2.3,3.1-3.3l2.2,1.2
				c-0.1,0.1-0.3,0.2-0.6,0.2c-1.1,1.2-2.7,2.7-4.3,4l3.3-0.1c-0.3-0.4-0.6-0.8-0.9-1.2l1.7-0.9c1.1,1.2,2.3,2.8,2.8,4l-1.8,1
				c-0.1-0.3-0.3-0.8-0.6-1.2l-3.3,0.2c-0.1,0.1-0.2,0.2-0.5,0.2c-0.2,0.3-0.5,0.6-0.7,1h3.5L592.9,439.3z M587.8,441
				c0.5,0.6,1.1,1.2,1.8,1.7c0.7-0.5,1.3-1.1,1.7-1.7H587.8z"/>
		</g>
		<line class="st2" x1="52" y1="408.3" x2="669" y2="408.3"/>
		<line class="st2" x1="52" y1="342.8" x2="669" y2="342.8"/>
		<line class="st2" x1="52" y1="277.3" x2="669" y2="277.3"/>
		<line class="st2" x1="52" y1="211.8" x2="669" y2="211.8"/>
		<line class="st2" x1="52" y1="146.3" x2="669" y2="146.3"/>
		<line class="st2" x1="52" y1="80.8" x2="669" y2="80.8"/>
		<line class="st2" x1="52" y1="15.3" x2="669" y2="15.3"/>
		<circle class="st3" cx="140.8" cy="366.3" r="5"/>
		<circle class="st3" cx="278.3" cy="309.3" r="5"/>
		<circle class="st3" cx="413.4" cy="220.3" r="5"/>
		<circle class="st3" cx="570.9" cy="43.3" r="5"/>
		<line class="st4" x1="139.5" y1="365.8" x2="277.5" y2="308.8"/>
		<line class="st4" x1="277.5" y1="308.8" x2="413.5" y2="219.8"/>
		<line class="st4" x1="412.5" y1="219.8" x2="569.5" y2="45.8"/>
		
			<rect x="90.6" y="184" transform="matrix(0.7768 -0.6297 0.6297 0.7768 -63.0271 220.0591)" class="st5" width="376.6" height="29.8"/>
		<polygon class="st5" points="469.3,37.3 390.3,48.5 458.1,116.4 		"/>
	</g>
</g>
</svg>
