<svg xmlns="http://www.w3.org/2000/svg" viewBox="0 0 669.47 509.11"><defs><style>.cls-1,.cls-5{font-size:18px;font-family:KozGoPr6N-Regular-83pv-RKSJ-H, Kozuka Gothic Pr6N;}.cls-1,.cls-6{letter-spacing:0.02em;}.cls-2{font-size:24px;fill:#479ef7;font-family:KozGoPr6N-Medium-83pv-RKSJ-H, Kozuka Gothic Pr6N;letter-spacing:0.03em;}.cls-3,.cls-7{fill:none;stroke-miterlimit:10;}.cls-3{stroke:#000;}.cls-4{fill:#666;}.cls-5{letter-spacing:0.27em;}.cls-7{stroke:#666;}.cls-8{fill:#61b3f9;}</style></defs><g id="レイヤー_2" data-name="レイヤー 2"><g id="レイヤー_1-2" data-name="レイヤー 1"><text class="cls-1" transform="translate(10.37 470.76)">800</text><text class="cls-1" transform="translate(0 404.59)">1000</text><text class="cls-1" transform="translate(0 338.43)">1200</text><text class="cls-1" transform="translate(0 272.26)">1400</text><text class="cls-1" transform="translate(0 206.09)">1600</text><text class="cls-1" transform="translate(0 139.93)">1800</text><text class="cls-1" transform="translate(0 73.76)">2000</text><text class="cls-2" transform="translate(159.35 449.76)">920</text><text class="cls-2" transform="translate(300.35 382.76)">1100</text><text class="cls-2" transform="translate(435.35 248.76)">1507</text><text class="cls-2" transform="translate(578.35 59.76)">2098</text><line class="cls-3" x1="52.35" y1="466.26" x2="669.35" y2="466.26"/><line class="cls-3" x1="52.35" y1="400.76" x2="669.35" y2="400.76"/><line class="cls-3" x1="52.35" y1="335.26" x2="669.35" y2="335.26"/><line class="cls-3" x1="52.35" y1="269.76" x2="669.35" y2="269.76"/><line class="cls-3" x1="52.35" y1="204.26" x2="669.35" y2="204.26"/><line class="cls-3" x1="52.35" y1="138.76" x2="669.35" y2="138.76"/><line class="cls-3" x1="52.35" y1="73.26" x2="669.35" y2="73.26"/><text class="cls-1" transform="translate(0 15.84)">2500</text><line class="cls-3" x1="52.47" y1="15.34" x2="669.47" y2="15.34"/><text class="cls-1" transform="translate(112.65 503.01)">導入前</text><circle class="cls-4" cx="140.33" cy="432.84" r="5"/><text class="cls-5" transform="translate(257.4 503.01)">1<tspan class="cls-6" x="14.87" y="0">か月後</tspan></text><circle class="cls-4" cx="283.28" cy="366.84" r="5"/><text class="cls-5" transform="translate(398.56 503.01)">3<tspan class="cls-6" x="14.87" y="0">か月後</tspan></text><circle class="cls-4" cx="424.44" cy="228.84" r="5"/><text class="cls-5" transform="translate(539.72 503.01)">6<tspan class="cls-6" x="14.87" y="0">か月後</tspan></text><circle class="cls-4" cx="565.6" cy="44.51" r="5"/><line class="cls-7" x1="138.97" y1="432.34" x2="282.97" y2="366.34"/><line class="cls-7" x1="282.97" y1="366.34" x2="423.97" y2="228.34"/><line class="cls-7" x1="423.97" y1="228.34" x2="565.97" y2="44.34"/><rect class="cls-8" x="120.75" y="209.76" width="376.64" height="29.8" transform="translate(-68.14 285.53) rotate(-45.18)"/><polygon class="cls-8" points="481.01 43.56 403.65 63.11 478.4 123.31 481.01 43.56"/></g></g></svg>