<?xml version="1.0" encoding="utf-8"?>
<!-- Generator: Adobe Illustrator 26.1.0, SVG Export Plug-In . SVG Version: 6.00 Build 0)  -->
<svg version="1.1" id="レイヤー_1" xmlns="http://www.w3.org/2000/svg" xmlns:xlink="http://www.w3.org/1999/xlink" x="0px"
	 y="0px" viewBox="0 0 669.5 509.1" style="enable-background:new 0 0 669.5 509.1;" xml:space="preserve">
<style type="text/css">
	.st0{enable-background:new    ;}
	.st1{fill:#479EF7;}
	.st2{fill:none;stroke:#000000;stroke-miterlimit:10;}
	.st3{fill:#666666;}
	.st4{fill:none;stroke:#666666;stroke-miterlimit:10;}
	.st5{fill:#61B3F9;}
</style>
<g id="レイヤー_2_00000055705051524030221350000014433668642996824742_">
	<g id="レイヤー_1-2">
		<g class="st0">
			<path d="M13.4,463.6c-1.3-0.7-1.9-1.8-1.9-3c0-2.3,1.9-3.7,4.2-3.7c2.7,0,4,1.7,4,3.4c0,1.1-0.6,2.3-2,3.1v0
				c1.3,0.6,2.4,1.8,2.4,3.5c0,2.4-1.9,4-4.6,4c-2.9,0-4.4-1.8-4.4-3.7C11,465.6,12,464.3,13.4,463.6L13.4,463.6z M17.4,467.1
				c0-1.3-0.9-2.2-2.1-2.6c-1,0.4-1.6,1.3-1.6,2.4c0,1.2,0.7,2.2,1.9,2.2C16.7,469.1,17.4,468.2,17.4,467.1z M13.9,460.5
				c0,1,0.8,1.8,1.8,2.2c0.8-0.3,1.4-1.2,1.4-2.1c0-0.9-0.5-1.9-1.6-1.9C14.4,458.7,13.9,459.6,13.9,460.5z"/>
			<path d="M21.6,464c0-4.1,1.5-7.1,4.6-7.1c3.2,0,4.4,3.2,4.4,7c0,4.5-1.7,7.1-4.5,7.1C23,471,21.6,467.8,21.6,464z M26.2,468.9
				c1.2,0,1.8-1.7,1.8-4.9c0-3.1-0.6-4.9-1.8-4.9c-1.2,0-1.9,1.7-1.9,4.9C24.3,467.2,25,468.9,26.2,468.9L26.2,468.9z"/>
			<path d="M32.3,464c0-4.1,1.5-7.1,4.6-7.1c3.2,0,4.4,3.2,4.4,7c0,4.5-1.7,7.1-4.5,7.1C33.6,471,32.3,467.8,32.3,464z M36.8,468.9
				c1.2,0,1.8-1.7,1.8-4.9c0-3.1-0.6-4.9-1.8-4.9c-1.2,0-1.9,1.7-1.9,4.9C34.9,467.2,35.6,468.9,36.8,468.9L36.8,468.9z"/>
		</g>
		<g class="st0">
			<path d="M4.5,404.6v-11.2h0l-2.3,1.2l-0.6-1.9l3.3-1.7h2.2v13.6H4.5z"/>
			<path d="M11.3,397.8c0-4.1,1.5-7.1,4.6-7.1c3.2,0,4.4,3.2,4.4,7c0,4.5-1.7,7.1-4.5,7.1C12.6,404.8,11.3,401.6,11.3,397.8z
				 M15.8,402.7c1.2,0,1.8-1.7,1.8-4.9c0-3.1-0.6-4.9-1.8-4.9c-1.2,0-1.9,1.7-1.9,4.9C13.9,401,14.6,402.7,15.8,402.7L15.8,402.7z"
				/>
			<path d="M21.9,397.8c0-4.1,1.5-7.1,4.6-7.1c3.2,0,4.4,3.2,4.4,7c0,4.5-1.7,7.1-4.5,7.1C23.2,404.8,21.9,401.6,21.9,397.8z
				 M26.4,402.7c1.2,0,1.8-1.7,1.8-4.9c0-3.1-0.6-4.9-1.8-4.9c-1.2,0-1.9,1.7-1.9,4.9C24.6,401,25.2,402.7,26.4,402.7L26.4,402.7z"
				/>
			<path d="M32.5,397.8c0-4.1,1.5-7.1,4.6-7.1c3.2,0,4.4,3.2,4.4,7c0,4.5-1.7,7.1-4.5,7.1C33.9,404.8,32.5,401.6,32.5,397.8z
				 M37.1,402.7c1.2,0,1.8-1.7,1.8-4.9c0-3.1-0.6-4.9-1.8-4.9c-1.2,0-1.9,1.7-1.9,4.9C35.2,401,35.9,402.7,37.1,402.7L37.1,402.7z"
				/>
		</g>
		<g class="st0">
			<path d="M4.5,338.4v-11.2h0l-2.3,1.2l-0.6-1.9l3.3-1.7h2.2v13.6H4.5z"/>
			<path d="M19.9,338.4h-8.5v-1.6l1.5-1.6c2.6-2.7,4.1-4.4,4.1-6.2c0-1.2-0.6-2.2-2.1-2.2c-1,0-1.9,0.5-2.5,1l-0.7-1.9
				c0.8-0.6,2.3-1.2,3.8-1.2c2.9,0,4.2,1.9,4.2,4.1c0,2.4-1.6,4.4-3.6,6.4l-1.1,1.1v0h5V338.4z"/>
			<path d="M21.9,331.7c0-4.1,1.5-7.1,4.6-7.1c3.2,0,4.4,3.2,4.4,7c0,4.5-1.7,7.1-4.5,7.1C23.2,338.6,21.9,335.5,21.9,331.7z
				 M26.4,336.5c1.2,0,1.8-1.7,1.8-4.9c0-3.1-0.6-4.9-1.8-4.9c-1.2,0-1.9,1.7-1.9,4.9C24.6,334.8,25.2,336.5,26.4,336.5L26.4,336.5z
				"/>
			<path d="M32.5,331.7c0-4.1,1.5-7.1,4.6-7.1c3.2,0,4.4,3.2,4.4,7c0,4.5-1.7,7.1-4.5,7.1C33.9,338.6,32.5,335.5,32.5,331.7z
				 M37.1,336.5c1.2,0,1.8-1.7,1.8-4.9c0-3.1-0.6-4.9-1.8-4.9c-1.2,0-1.9,1.7-1.9,4.9C35.2,334.8,35.9,336.5,37.1,336.5L37.1,336.5z
				"/>
		</g>
		<g class="st0">
			<path d="M4.5,272.3V261h0l-2.3,1.2l-0.6-1.9l3.3-1.7h2.2v13.6H4.5z"/>
			<path d="M19,272.3h-2.5v-3.4H11v-1.7l5-8.5h3v8.2h1.6v2H19V272.3z M13.4,266.9h3.1v-3.4c0-0.8,0.1-1.7,0.1-2.5h-0.1
				c-0.4,0.9-0.7,1.6-1.2,2.4L13.4,266.9L13.4,266.9z"/>
			<path d="M21.9,265.5c0-4.1,1.5-7.1,4.6-7.1c3.2,0,4.4,3.2,4.4,7c0,4.5-1.7,7.1-4.5,7.1C23.2,272.5,21.9,269.3,21.9,265.5z
				 M26.4,270.4c1.2,0,1.8-1.7,1.8-4.9c0-3.1-0.6-4.9-1.8-4.9c-1.2,0-1.9,1.7-1.9,4.9C24.6,268.7,25.2,270.4,26.4,270.4L26.4,270.4z
				"/>
			<path d="M32.5,265.5c0-4.1,1.5-7.1,4.6-7.1c3.2,0,4.4,3.2,4.4,7c0,4.5-1.7,7.1-4.5,7.1C33.9,272.5,32.5,269.3,32.5,265.5z
				 M37.1,270.4c1.2,0,1.8-1.7,1.8-4.9c0-3.1-0.6-4.9-1.8-4.9c-1.2,0-1.9,1.7-1.9,4.9C35.2,268.7,35.9,270.4,37.1,270.4L37.1,270.4z
				"/>
		</g>
		<g class="st0">
			<path d="M4.5,206.1v-11.2h0l-2.3,1.2l-0.6-1.9l3.3-1.7h2.2v13.6H4.5z"/>
			<path d="M14,198.3c0.6-0.7,1.5-1.2,2.7-1.2c2.1,0,3.7,1.6,3.7,4.3c0,2.6-1.7,4.8-4.4,4.8c-3.1,0-4.7-2.5-4.7-5.8
				c0-3.1,1.4-8.2,7.9-8.2v2.1c-0.3,0-0.7,0-1.2,0.1C15.4,194.8,14.3,196.5,14,198.3L14,198.3z M17.8,201.6c0-1.4-0.7-2.6-1.9-2.6
				c-0.8,0-1.9,0.7-1.9,2.2c0,1.8,0.8,3.2,2.1,3.2C17.1,204.4,17.8,203.1,17.8,201.6z"/>
			<path d="M21.9,199.3c0-4.1,1.5-7.1,4.6-7.1c3.2,0,4.4,3.2,4.4,7c0,4.5-1.7,7.1-4.5,7.1C23.2,206.3,21.9,203.1,21.9,199.3z
				 M26.4,204.2c1.2,0,1.8-1.7,1.8-4.9c0-3.1-0.6-4.9-1.8-4.9c-1.2,0-1.9,1.7-1.9,4.9C24.6,202.5,25.2,204.2,26.4,204.2L26.4,204.2z
				"/>
			<path d="M32.5,199.3c0-4.1,1.5-7.1,4.6-7.1c3.2,0,4.4,3.2,4.4,7c0,4.5-1.7,7.1-4.5,7.1C33.9,206.3,32.5,203.1,32.5,199.3z
				 M37.1,204.2c1.2,0,1.8-1.7,1.8-4.9c0-3.1-0.6-4.9-1.8-4.9c-1.2,0-1.9,1.7-1.9,4.9C35.2,202.5,35.9,204.2,37.1,204.2L37.1,204.2z
				"/>
		</g>
		<g class="st0">
			<path d="M4.5,139.9v-11.2h0l-2.3,1.2L1.5,128l3.3-1.7h2.2v13.6H4.5z"/>
			<path d="M13.6,132.8c-1.3-0.7-1.9-1.8-1.9-3c0-2.3,1.9-3.7,4.2-3.7c2.7,0,4,1.7,4,3.4c0,1.1-0.6,2.3-2,3.1v0
				c1.3,0.6,2.4,1.8,2.4,3.5c0,2.4-1.9,4-4.6,4c-2.9,0-4.4-1.8-4.4-3.7C11.3,134.7,12.3,133.5,13.6,132.8L13.6,132.8z M17.7,136.3
				c0-1.3-0.9-2.2-2.1-2.6c-1,0.4-1.6,1.3-1.6,2.4c0,1.2,0.7,2.2,1.9,2.2C17,138.3,17.7,137.4,17.7,136.3z M14.2,129.7
				c0,1,0.8,1.8,1.8,2.2c0.8-0.3,1.4-1.2,1.4-2.1c0-0.9-0.5-1.9-1.6-1.9C14.7,127.9,14.2,128.8,14.2,129.7z"/>
			<path d="M21.9,133.2c0-4.1,1.5-7.1,4.6-7.1c3.2,0,4.4,3.2,4.4,7c0,4.5-1.7,7.1-4.5,7.1C23.2,140.1,21.9,137,21.9,133.2z
				 M26.4,138c1.2,0,1.8-1.7,1.8-4.9c0-3.1-0.6-4.9-1.8-4.9c-1.2,0-1.9,1.7-1.9,4.9C24.6,136.3,25.2,138,26.4,138L26.4,138z"/>
			<path d="M32.5,133.2c0-4.1,1.5-7.1,4.6-7.1c3.2,0,4.4,3.2,4.4,7c0,4.5-1.7,7.1-4.5,7.1C33.9,140.1,32.5,137,32.5,133.2z
				 M37.1,138c1.2,0,1.8-1.7,1.8-4.9c0-3.1-0.6-4.9-1.8-4.9c-1.2,0-1.9,1.7-1.9,4.9C35.2,136.3,35.9,138,37.1,138L37.1,138z"/>
		</g>
		<g class="st0">
			<path d="M9.3,73.8H0.8v-1.6l1.5-1.6c2.6-2.7,4.1-4.4,4.1-6.2c0-1.2-0.6-2.2-2.1-2.2c-1,0-1.9,0.5-2.5,1L1,61.2
				c0.8-0.6,2.3-1.2,3.8-1.2C7.7,59.9,9,61.8,9,64c0,2.4-1.6,4.4-3.6,6.4l-1.1,1.1v0h5V73.8z"/>
			<path d="M11.3,67c0-4.1,1.5-7.1,4.6-7.1c3.2,0,4.4,3.2,4.4,7c0,4.5-1.7,7.1-4.5,7.1C12.6,74,11.3,70.8,11.3,67z M15.8,71.9
				c1.2,0,1.8-1.7,1.8-4.9c0-3.1-0.6-4.9-1.8-4.9c-1.2,0-1.9,1.7-1.9,4.9C13.9,70.2,14.6,71.9,15.8,71.9L15.8,71.9z"/>
			<path d="M21.9,67c0-4.1,1.5-7.1,4.6-7.1c3.2,0,4.4,3.2,4.4,7c0,4.5-1.7,7.1-4.5,7.1C23.2,74,21.9,70.8,21.9,67z M26.4,71.9
				c1.2,0,1.8-1.7,1.8-4.9c0-3.1-0.6-4.9-1.8-4.9c-1.2,0-1.9,1.7-1.9,4.9C24.6,70.2,25.2,71.9,26.4,71.9L26.4,71.9z"/>
			<path d="M32.5,67c0-4.1,1.5-7.1,4.6-7.1c3.2,0,4.4,3.2,4.4,7c0,4.5-1.7,7.1-4.5,7.1C33.9,74,32.5,70.8,32.5,67z M37.1,71.9
				c1.2,0,1.8-1.7,1.8-4.9c0-3.1-0.6-4.9-1.8-4.9c-1.2,0-1.9,1.7-1.9,4.9C35.2,70.2,35.9,71.9,37.1,71.9L37.1,71.9z"/>
		</g>
		<g class="st0">
			<path class="st1" d="M169.1,441.6c-0.9,1-2.1,1.7-3.7,1.7c-2.9,0-5-2.3-5-5.5c0-3.4,2.3-6.4,5.9-6.4c3.7,0,5.8,3.1,5.8,7.6
				c0,5.8-2.9,10.3-8.2,10.9c-0.7,0.1-1.5,0.1-2,0.1v-2.2c0.5,0,1,0,1.8-0.1C167.5,447.1,168.8,443.8,169.1,441.6L169.1,441.6z
				 M163.1,437.6c0,2.1,1.1,3.7,2.9,3.7c1.3,0,2.4-0.8,2.9-1.7c0.1-0.2,0.2-0.6,0.2-1.1c0-3-1-5.1-3.1-5.1
				C164.3,433.4,163.1,435.2,163.1,437.6z"/>
			<path class="st1" d="M185.6,449.8h-11v-1.7l1.9-2c3.8-3.9,5.9-6.4,5.9-9.1c0-1.8-0.8-3.3-3.1-3.3c-1.4,0-2.6,0.7-3.5,1.4l-0.8-2
				c1.1-0.9,2.9-1.7,4.9-1.7c3.7,0,5.4,2.5,5.4,5.3c0,3.3-2.3,6.1-5.4,9.2l-1.5,1.5v0h7.3V449.8z"/>
			<path class="st1" d="M188.6,440.8c0-5.9,2.2-9.4,6-9.4c3.8,0,5.7,3.7,5.7,9.2c0,6.1-2.2,9.5-5.9,9.5
				C190.6,450,188.6,446.3,188.6,440.8z M197.5,440.7c0-4.3-0.9-7.1-3-7.1c-1.8,0-3.1,2.5-3.1,7.1c0,4.5,1.1,7.1,3,7.1
				C196.8,447.8,197.5,444.4,197.5,440.7z"/>
		</g>
		<g class="st0">
			<path class="st1" d="M306.4,382.8v-15.5h0l-3,1.7l-0.6-2l4.1-2.2h2.4v18.1H306.4z"/>
			<path class="st1" d="M320.6,382.8v-15.5h0l-3,1.7l-0.6-2l4.1-2.2h2.4v18.1H320.6z"/>
			<path class="st1" d="M329.6,373.8c0-5.9,2.2-9.4,6-9.4c3.8,0,5.7,3.7,5.7,9.2c0,6.1-2.2,9.5-5.9,9.5
				C331.6,383,329.6,379.3,329.6,373.8z M338.5,373.7c0-4.3-0.9-7.1-3-7.1c-1.8,0-3.1,2.5-3.1,7.1c0,4.5,1.1,7.1,3,7.1
				C337.8,380.8,338.5,377.4,338.5,373.7z"/>
			<path class="st1" d="M343.8,373.8c0-5.9,2.2-9.4,6-9.4c3.8,0,5.7,3.7,5.7,9.2c0,6.1-2.2,9.5-5.9,9.5
				C345.8,383,343.8,379.3,343.8,373.8z M352.7,373.7c0-4.3-0.9-7.1-3-7.1c-1.8,0-3.1,2.5-3.1,7.1c0,4.5,1.1,7.1,3,7.1
				C352,380.8,352.7,377.4,352.7,373.7z"/>
		</g>
		<g class="st0">
			<path class="st1" d="M441.4,248.8v-15.5h0l-3,1.7l-0.6-2l4.1-2.2h2.4v18.1H441.4z"/>
			<path class="st1" d="M461,230.7v2.3h-6.3l-0.6,4.3c0.4,0,0.7-0.1,1.2-0.1c3.3,0,6.1,1.9,6.1,5.6c0,3.5-2.7,6.2-6.6,6.2
				c-1.8,0-3.4-0.5-4.2-1l0.6-2.1c0.7,0.4,2,0.9,3.5,0.9c2,0,3.9-1.4,3.9-3.7c0-2.3-1.6-3.8-4.8-3.8c-0.9,0-1.6,0-2.2,0.1l1.1-8.7
				H461z"/>
			<path class="st1" d="M464.6,239.8c0-5.9,2.2-9.4,6-9.4c3.8,0,5.7,3.7,5.7,9.2c0,6.1-2.2,9.5-5.9,9.5
				C466.6,249,464.6,245.3,464.6,239.8z M473.5,239.7c0-4.3-0.9-7.1-3-7.1c-1.8,0-3.1,2.5-3.1,7.1c0,4.5,1.1,7.1,3,7.1
				C472.8,246.8,473.5,243.4,473.5,239.7z"/>
			<path class="st1" d="M479.3,230.7h10.9v1.8l-7.2,16.3h-2.9l7.2-15.7v0h-8.1V230.7z"/>
		</g>
		<g class="st0">
			<path class="st1" d="M590.4,59.8h-11v-1.7l1.9-2c3.8-3.9,5.9-6.4,5.9-9.1c0-1.8-0.8-3.3-3.1-3.3c-1.4,0-2.6,0.7-3.5,1.4l-0.8-2
				c1.1-0.9,2.9-1.7,4.9-1.7c3.7,0,5.4,2.5,5.4,5.3c0,3.3-2.3,6.1-5.4,9.2l-1.5,1.5v0h7.3V59.8z"/>
			<path class="st1" d="M593.4,50.8c0-5.9,2.2-9.4,6-9.4c3.8,0,5.7,3.7,5.7,9.2c0,6.1-2.2,9.5-5.9,9.5
				C595.4,60,593.4,56.3,593.4,50.8z M602.3,50.7c0-4.3-0.9-7.1-3-7.1c-1.8,0-3.1,2.5-3.1,7.1c0,4.5,1.1,7.1,3,7.1
				C601.6,57.8,602.3,54.4,602.3,50.7z"/>
			<path class="st1" d="M616.4,51.6c-0.9,1-2.1,1.7-3.7,1.7c-2.9,0-5-2.3-5-5.5c0-3.4,2.3-6.4,5.9-6.4c3.7,0,5.8,3.1,5.8,7.6
				c0,5.8-2.9,10.3-8.2,10.9c-0.7,0.1-1.5,0.1-2,0.1v-2.2c0.5,0,1,0,1.8-0.1C614.8,57.1,616.2,53.8,616.4,51.6L616.4,51.6z
				 M610.5,47.6c0,2.1,1.1,3.7,2.9,3.7c1.3,0,2.4-0.8,2.9-1.7c0.1-0.2,0.2-0.6,0.2-1.1c0-3-1-5.1-3.1-5.1
				C611.7,43.4,610.5,45.2,610.5,47.6z"/>
			<path class="st1" d="M625.2,50.2c-1.8-0.9-2.7-2.5-2.7-4c0-2.9,2.3-4.8,5.4-4.8c3.5,0,5.1,2.3,5.1,4.5c0,1.5-0.8,3.2-2.8,4.2v0.1
				c2,0.9,3.4,2.4,3.4,4.7c0,3.1-2.5,5.3-5.9,5.3c-3.7,0-5.7-2.3-5.7-4.8C621.8,52.9,623.2,51.2,625.2,50.2L625.2,50.2z M630.7,55
				c0-2-1.3-3.1-3.3-3.8c-1.8,0.6-2.7,2-2.7,3.6c0,1.8,1.2,3.2,3,3.2C629.6,58.1,630.7,56.7,630.7,55z M625.1,46
				c0,1.7,1.2,2.6,2.9,3.2c1.2-0.5,2.3-1.7,2.3-3.1c0-1.4-0.7-2.8-2.5-2.8C625.9,43.3,625.1,44.7,625.1,46z"/>
		</g>
		<line class="st2" x1="52.3" y1="466.3" x2="669.3" y2="466.3"/>
		<line class="st2" x1="52.3" y1="400.8" x2="669.3" y2="400.8"/>
		<line class="st2" x1="52.3" y1="335.3" x2="669.3" y2="335.3"/>
		<line class="st2" x1="52.3" y1="269.8" x2="669.3" y2="269.8"/>
		<line class="st2" x1="52.3" y1="204.3" x2="669.3" y2="204.3"/>
		<line class="st2" x1="52.3" y1="138.8" x2="669.3" y2="138.8"/>
		<line class="st2" x1="52.3" y1="73.3" x2="669.3" y2="73.3"/>
		<g class="st0">
			<path d="M9.3,15.8H0.8v-1.6l1.5-1.6c2.6-2.7,4.1-4.4,4.1-6.2c0-1.2-0.6-2.2-2.1-2.2c-1,0-1.9,0.5-2.5,1L1,3.2
				C1.8,2.6,3.2,2,4.8,2C7.7,2,9,3.9,9,6.1c0,2.4-1.6,4.4-3.6,6.4l-1.1,1.1v0h5V15.8z"/>
			<path d="M19.5,2.2v2.2h-4.6l-0.4,2.7C14.7,7,14.9,7,15.2,7c2.4,0,4.6,1.3,4.6,4.3c0,2.6-2,4.8-5.2,4.8c-1.4,0-2.6-0.3-3.2-0.7
				l0.5-2c0.5,0.3,1.5,0.6,2.6,0.6c1.4,0,2.7-0.9,2.7-2.4c0-1.6-1.2-2.6-3.5-2.6c-0.6,0-1.1,0-1.5,0.1l0.8-6.8H19.5z"/>
			<path d="M21.9,9.1c0-4.1,1.5-7.1,4.6-7.1c3.2,0,4.4,3.2,4.4,7c0,4.5-1.7,7.1-4.5,7.1C23.2,16,21.9,12.9,21.9,9.1z M26.4,13.9
				c1.2,0,1.8-1.7,1.8-4.9c0-3.1-0.6-4.9-1.8-4.9c-1.2,0-1.9,1.7-1.9,4.9C24.6,12.2,25.2,13.9,26.4,13.9L26.4,13.9z"/>
			<path d="M32.5,9.1c0-4.1,1.5-7.1,4.6-7.1c3.2,0,4.4,3.2,4.4,7c0,4.5-1.7,7.1-4.5,7.1C33.9,16,32.5,12.9,32.5,9.1z M37.1,13.9
				c1.2,0,1.8-1.7,1.8-4.9c0-3.1-0.6-4.9-1.8-4.9c-1.2,0-1.9,1.7-1.9,4.9C35.2,12.2,35.9,13.9,37.1,13.9L37.1,13.9z"/>
		</g>
		<line class="st2" x1="52.5" y1="15.3" x2="669.5" y2="15.3"/>
		<g class="st0">
			<path d="M117.5,495.7c0.9,1.5,2.5,1.5,6,1.5c2.3,0,5-0.1,6.7-0.2c-0.2,0.4-0.5,1.2-0.5,1.7c-0.9,0-2,0.1-3.2,0.1
				c-0.1,0.1-0.2,0.2-0.4,0.2v0.5h3.9v1.6H126v1.5c0,1.8-0.8,2.1-4,2.1c-0.1-0.6-0.4-1.3-0.7-1.9c0.6,0,1.2,0.1,1.6,0.1
				c0.8,0,0.9,0,0.9-0.3v-1.4h-5.4c0.7,0.5,1.5,1.1,1.9,1.6l-1.6,1.3c-0.5-0.6-1.5-1.5-2.4-2.1l1-0.8h-4v-1.6h10.6v-0.8
				c-4.2,0-5.8,0-7.1-1.7c-0.9,0.6-1.7,1.2-2.5,1.6c0,0.2-0.1,0.3-0.2,0.3l-0.8-1.8c0.7-0.3,1.5-0.7,2.3-1.2v-2.2h-2.1v-1.6h4.1
				V495.7z M115.2,487.9c0.9,0.6,2,1.5,2.5,2.2l-1.5,1.3c-0.5-0.7-1.5-1.7-2.4-2.4L115.2,487.9z M119.5,491.2h3.1
				c0.1-0.2,0.1-0.4,0.1-0.6h-4.6v-1.5h2.8c-0.2-0.4-0.4-0.8-0.7-1.2l1.8-0.3c0.3,0.4,0.7,1,0.9,1.5h2.3c0.3-0.5,0.6-1.1,0.8-1.5
				l2.3,0.5c-0.1,0.1-0.2,0.2-0.4,0.2c-0.2,0.3-0.4,0.6-0.7,0.8h2.9v1.5h-5.3c-0.1,0.2-0.2,0.4-0.3,0.6h4v5.4h-8.9V491.2z
				 M126.4,492.7v-0.5h-4.9v0.5H126.4z M126.4,494.2v-0.6h-4.9v0.6H126.4z M126.4,495.7v-0.6h-4.9v0.6H126.4z"/>
			<path d="M135.1,488.7h6.3c0,3.4,0.5,10.1,7.2,14c-0.5,0.4-1.4,1.3-1.7,1.9c-3.8-2.3-5.7-5.8-6.7-9c-1.3,4.1-3.5,7.2-6.8,9.1
				c-0.4-0.5-1.3-1.3-1.8-1.7c3.7-1.9,5.9-5.5,6.9-10.3l1.1,0.3c-0.1-0.7-0.2-1.4-0.3-2h-4.2V488.7z"/>
			<path d="M164.6,488.6c-0.1,0.1-0.3,0.2-0.5,0.2c-0.4,0.5-1,1.2-1.6,1.7h4.1v2h-16.5v-2h4.2c-0.4-0.6-1.1-1.4-1.6-2l2-0.8
				c0.8,0.7,1.7,1.7,2.1,2.4l-0.9,0.4h5.1l-0.9-0.4c0.6-0.7,1.5-1.7,1.9-2.5L164.6,488.6z M158,493.7v8.9c0,1.8-0.9,2.1-3.3,2.1
				c-0.1-0.5-0.4-1.3-0.7-1.8c0.4,0,0.8,0,1.1,0c0.7,0,0.8,0,0.8-0.3V501h-2.6v3.7h-2.1v-11H158z M155.9,495.5h-2.6v1.1h2.6V495.5z
				 M153.3,499.4h2.6v-1.2h-2.6V499.4z M161.9,494c0,0.2-0.1,0.3-0.5,0.3v6.9h-2.1v-7.4L161.9,494z M165.3,502.4
				c0,1.9-0.7,2.3-3.9,2.3c-0.1-0.6-0.5-1.5-0.8-2.1c0.6,0,1.2,0.1,1.6,0.1c0.8,0,1,0,1-0.3v-9l2.6,0.1c0,0.2-0.2,0.3-0.5,0.3V502.4
				z"/>
		</g>
		<circle class="st3" cx="140.3" cy="432.8" r="5"/>
		<g class="st0">
			<path d="M261.9,503v-11.2h0l-2.3,1.2l-0.6-1.9l3.3-1.7h2.2V503H261.9z"/>
		</g>
		<g class="st0">
			<path d="M280.4,488.6c0,0.3-0.3,0.3-0.6,0.4c-0.2,0.9-0.4,2.4-0.6,3.5c0.5-0.1,1.1-0.1,1.5-0.1c3,0,3.9,2.1,3.9,4.9v0
				c-0.1,4-1.2,6.8-3.9,6.8c-0.7,0-1.8-0.3-3.2-1.5c0.3-0.6,0.6-1.3,0.8-1.9c1.2,0.9,1.9,1.1,2.4,1.1c0.8,0,1.1-0.6,1.4-1.6
				c0.2-0.8,0.4-2.3,0.4-3c0-1.8-0.6-2.7-1.8-2.7c-0.4,0-1,0-1.7,0.1c-0.8,3.3-1.8,6.5-3.3,9.4l-2.1-1c1.5-2.7,2.4-5.2,3.1-8.1
				c-0.6,0.1-1.9,0.3-2.7,0.4l-0.2-2.2l3.3-0.4c0.2-1.3,0.5-2.8,0.6-4.3L280.4,488.6z M287.4,497.5c-0.4-2.4-2-4.6-3.6-6l1.7-1.2
				c1.9,1.4,3.7,4.1,4.1,6.3L287.4,497.5z"/>
			<path d="M305.2,488.5v13.4c0,2.4-1.1,2.7-5.2,2.7c-0.1-0.6-0.6-1.7-0.9-2.3c0.8,0.1,1.8,0.1,2.5,0.1c1.2,0,1.3,0,1.3-0.5v-2.8
				h-7.6c-0.5,2.1-1.5,4.1-3.4,5.6c-0.3-0.5-1.2-1.3-1.6-1.6c3-2.3,3.3-5.8,3.3-8.6v-6H305.2z M295.8,494.9c0,0.7-0.1,1.4-0.1,2.2
				h7.2v-2.2H295.8z M302.9,490.6h-7.1v2.2h7.1V490.6z"/>
			<path d="M310.3,497.5c-0.5,0.6-1,1.1-1.5,1.5c-0.2-0.5-0.7-1.5-1-1.9c1.4-1.2,3.1-3.3,4.2-5.3l2.2,0.9c-0.1,0.1-0.3,0.2-0.5,0.2
				c-0.4,0.7-0.8,1.4-1.3,2l0.4,0.1c-0.1,0.1-0.2,0.3-0.5,0.3v9.3h-2V497.5z M313.6,488.6c-0.1,0.1-0.2,0.2-0.5,0.2
				c-1,1.4-2.6,3.3-4.1,4.5c-0.3-0.5-0.8-1.2-1.2-1.6c1.3-1,2.7-2.7,3.4-3.9L313.6,488.6z M322.2,497.2l1.4,0.6
				c-0.1,0.1-0.1,0.2-0.2,0.3c-0.6,1.4-1.5,2.6-2.6,3.5c1.3,0.6,2.8,1,4.5,1.3c-0.5,0.4-1,1.3-1.3,1.8c-1.9-0.4-3.6-1-5-1.8
				c-1.5,0.8-3.1,1.4-4.9,1.8c-0.2-0.5-0.7-1.4-1-1.8c1.5-0.3,2.9-0.7,4.2-1.3c-0.5-0.5-1-1-1.5-1.5c-0.5,0.4-1,0.8-1.5,1.1
				c-0.3-0.4-0.9-1.2-1.3-1.5c1.4-0.8,2.9-2,3.9-3.3l-2.8,0.1c-0.1,0.2-0.2,0.3-0.3,0.3l-0.6-2.3c0.8,0,1.7,0,2.7,0
				c0.3-0.2,0.5-0.4,0.8-0.6c-0.8-0.9-2.1-1.9-3.2-2.6l1.3-1.4c0.3,0.2,0.6,0.4,0.9,0.6c0.7-0.8,1.5-1.9,2-2.7l2.1,1.1
				c-0.1,0.1-0.3,0.2-0.5,0.2c-0.5,0.7-1.5,1.7-2.2,2.5c0.4,0.3,0.8,0.7,1.1,1c1.2-1.1,2.3-2.3,3.1-3.3l2.2,1.2
				c-0.1,0.1-0.3,0.2-0.6,0.2c-1.1,1.2-2.7,2.7-4.3,4l3.3-0.1c-0.3-0.4-0.6-0.8-0.9-1.2l1.7-0.9c1.1,1.2,2.3,2.8,2.8,4l-1.8,1
				c-0.1-0.3-0.3-0.8-0.6-1.2l-3.3,0.2c-0.1,0.1-0.2,0.2-0.5,0.2c-0.2,0.3-0.5,0.6-0.7,1h3.5L322.2,497.2z M317.1,498.9
				c0.5,0.6,1.1,1.2,1.8,1.7c0.7-0.5,1.3-1.1,1.7-1.7H317.1z"/>
		</g>
		<circle class="st3" cx="283.3" cy="366.8" r="5"/>
		<g class="st0">
			<path d="M404.9,495.7c1.5,0.3,2.8,1.6,2.8,3.4c0,2.3-1.8,4.1-5,4.1c-1.4,0-2.7-0.4-3.4-0.8l0.6-2c0.5,0.3,1.6,0.7,2.6,0.7
				c1.6,0,2.4-1,2.4-2.1c0-1.5-1.3-2.3-2.8-2.3h-0.9v-1.9h0.9c1.1,0,2.4-0.6,2.4-1.9c0-1-0.6-1.7-1.9-1.7c-0.9,0-1.9,0.4-2.4,0.7
				l-0.6-1.9c0.7-0.5,2.1-0.9,3.5-0.9c2.6,0,4,1.5,4,3.3C407.2,493.9,406.4,495.1,404.9,495.7L404.9,495.7z"/>
		</g>
		<g class="st0">
			<path d="M421.6,488.6c0,0.3-0.3,0.3-0.6,0.4c-0.2,0.9-0.4,2.4-0.6,3.5c0.5-0.1,1.1-0.1,1.5-0.1c3,0,3.9,2.1,3.9,4.9v0
				c-0.1,4-1.2,6.8-3.9,6.8c-0.7,0-1.8-0.3-3.2-1.5c0.3-0.6,0.6-1.3,0.8-1.9c1.2,0.9,1.9,1.1,2.4,1.1c0.8,0,1.1-0.6,1.4-1.6
				c0.2-0.8,0.4-2.3,0.4-3c0-1.8-0.6-2.7-1.8-2.7c-0.4,0-1,0-1.7,0.1c-0.8,3.3-1.8,6.5-3.3,9.4l-2.1-1c1.5-2.7,2.4-5.2,3.1-8.1
				c-0.6,0.1-1.9,0.3-2.7,0.4l-0.2-2.2l3.3-0.4c0.2-1.3,0.5-2.8,0.6-4.3L421.6,488.6z M428.5,497.5c-0.4-2.4-2-4.6-3.6-6l1.7-1.2
				c1.9,1.4,3.7,4.1,4.1,6.3L428.5,497.5z"/>
			<path d="M446.4,488.5v13.4c0,2.4-1.1,2.7-5.2,2.7c-0.1-0.6-0.6-1.7-0.9-2.3c0.8,0.1,1.8,0.1,2.5,0.1c1.2,0,1.3,0,1.3-0.5v-2.8
				h-7.6c-0.5,2.1-1.5,4.1-3.4,5.6c-0.3-0.5-1.2-1.3-1.6-1.6c3-2.3,3.3-5.8,3.3-8.6v-6H446.4z M437,494.9c0,0.7-0.1,1.4-0.1,2.2h7.2
				v-2.2H437z M444.1,490.6H437v2.2h7.1V490.6z"/>
			<path d="M451.4,497.5c-0.5,0.6-1,1.1-1.5,1.5c-0.2-0.5-0.7-1.5-1-1.9c1.4-1.2,3.1-3.3,4.2-5.3l2.2,0.9c-0.1,0.1-0.3,0.2-0.5,0.2
				c-0.4,0.7-0.8,1.4-1.3,2l0.4,0.1c-0.1,0.1-0.2,0.3-0.5,0.3v9.3h-2V497.5z M454.8,488.6c-0.1,0.1-0.2,0.2-0.5,0.2
				c-1,1.4-2.6,3.3-4.1,4.5c-0.3-0.5-0.8-1.2-1.2-1.6c1.3-1,2.7-2.7,3.4-3.9L454.8,488.6z M463.3,497.2l1.4,0.6
				c-0.1,0.1-0.1,0.2-0.2,0.3c-0.6,1.4-1.5,2.6-2.6,3.5c1.3,0.6,2.8,1,4.5,1.3c-0.5,0.4-1,1.3-1.3,1.8c-1.9-0.4-3.6-1-5-1.8
				c-1.5,0.8-3.1,1.4-4.9,1.8c-0.2-0.5-0.7-1.4-1-1.8c1.5-0.3,2.9-0.7,4.2-1.3c-0.5-0.5-1-1-1.5-1.5c-0.5,0.4-1,0.8-1.5,1.1
				c-0.3-0.4-0.9-1.2-1.3-1.5c1.4-0.8,2.9-2,3.9-3.3l-2.8,0.1c-0.1,0.2-0.2,0.3-0.3,0.3l-0.6-2.3c0.8,0,1.7,0,2.7,0
				c0.3-0.2,0.5-0.4,0.8-0.6c-0.8-0.9-2.1-1.9-3.2-2.6l1.3-1.4c0.3,0.2,0.6,0.4,0.9,0.6c0.7-0.8,1.5-1.9,2-2.7l2.1,1.1
				c-0.1,0.1-0.3,0.2-0.5,0.2c-0.5,0.7-1.5,1.7-2.2,2.5c0.4,0.3,0.8,0.7,1.1,1c1.2-1.1,2.3-2.3,3.1-3.3l2.2,1.2
				c-0.1,0.1-0.3,0.2-0.6,0.2c-1.1,1.2-2.7,2.7-4.3,4l3.3-0.1c-0.3-0.4-0.6-0.8-0.9-1.2l1.7-0.9c1.1,1.2,2.3,2.8,2.8,4l-1.8,1
				c-0.1-0.3-0.3-0.8-0.6-1.2l-3.3,0.2c-0.1,0.1-0.2,0.2-0.5,0.2c-0.2,0.3-0.5,0.6-0.7,1h3.5L463.3,497.2z M458.2,498.9
				c0.5,0.6,1.1,1.2,1.8,1.7c0.7-0.5,1.3-1.1,1.7-1.7H458.2z"/>
		</g>
		<circle class="st3" cx="424.4" cy="228.8" r="5"/>
		<g class="st0">
			<path d="M543.1,495.2c0.6-0.7,1.5-1.2,2.7-1.2c2.1,0,3.7,1.6,3.7,4.3c0,2.6-1.7,4.8-4.4,4.8c-3.1,0-4.7-2.5-4.7-5.8
				c0-3.1,1.4-8.2,7.9-8.2v2.1c-0.3,0-0.7,0-1.2,0.1C544.5,491.7,543.3,493.4,543.1,495.2L543.1,495.2z M546.8,498.5
				c0-1.4-0.7-2.6-1.9-2.6c-0.8,0-1.9,0.7-1.9,2.2c0,1.8,0.8,3.2,2.1,3.2C546.2,501.3,546.8,500,546.8,498.5z"/>
		</g>
		<g class="st0">
			<path d="M562.7,488.6c0,0.3-0.3,0.3-0.6,0.4c-0.2,0.9-0.4,2.4-0.6,3.5c0.5-0.1,1.1-0.1,1.5-0.1c3,0,3.9,2.1,3.9,4.9v0
				c-0.1,4-1.2,6.8-3.9,6.8c-0.7,0-1.8-0.3-3.2-1.5c0.3-0.6,0.6-1.3,0.8-1.9c1.2,0.9,1.9,1.1,2.4,1.1c0.8,0,1.1-0.6,1.4-1.6
				c0.2-0.8,0.4-2.3,0.4-3c0-1.8-0.6-2.7-1.8-2.7c-0.4,0-1,0-1.7,0.1c-0.8,3.3-1.8,6.5-3.3,9.4l-2.1-1c1.5-2.7,2.4-5.2,3.1-8.1
				c-0.6,0.1-1.9,0.3-2.7,0.4l-0.2-2.2l3.3-0.4c0.2-1.3,0.5-2.8,0.6-4.3L562.7,488.6z M569.7,497.5c-0.4-2.4-2-4.6-3.6-6l1.7-1.2
				c1.9,1.4,3.7,4.1,4.1,6.3L569.7,497.5z"/>
			<path d="M587.6,488.5v13.4c0,2.4-1.1,2.7-5.2,2.7c-0.1-0.6-0.6-1.7-0.9-2.3c0.8,0.1,1.8,0.1,2.5,0.1c1.2,0,1.3,0,1.3-0.5v-2.8
				h-7.6c-0.5,2.1-1.5,4.1-3.4,5.6c-0.3-0.5-1.2-1.3-1.6-1.6c3-2.3,3.3-5.8,3.3-8.6v-6H587.6z M578.2,494.9c0,0.7-0.1,1.4-0.1,2.2
				h7.2v-2.2H578.2z M585.3,490.6h-7.1v2.2h7.1V490.6z"/>
			<path d="M592.6,497.5c-0.5,0.6-1,1.1-1.5,1.5c-0.2-0.5-0.7-1.5-1-1.9c1.4-1.2,3.1-3.3,4.2-5.3l2.2,0.9c-0.1,0.1-0.3,0.2-0.5,0.2
				c-0.4,0.7-0.8,1.4-1.3,2l0.4,0.1c-0.1,0.1-0.2,0.3-0.5,0.3v9.3h-2V497.5z M595.9,488.6c-0.1,0.1-0.2,0.2-0.5,0.2
				c-1,1.4-2.6,3.3-4.1,4.5c-0.3-0.5-0.8-1.2-1.2-1.6c1.3-1,2.7-2.7,3.4-3.9L595.9,488.6z M604.5,497.2l1.4,0.6
				c-0.1,0.1-0.1,0.2-0.2,0.3c-0.6,1.4-1.5,2.6-2.6,3.5c1.3,0.6,2.8,1,4.5,1.3c-0.5,0.4-1,1.3-1.3,1.8c-1.9-0.4-3.6-1-5-1.8
				c-1.5,0.8-3.1,1.4-4.9,1.8c-0.2-0.5-0.7-1.4-1-1.8c1.5-0.3,2.9-0.7,4.2-1.3c-0.5-0.5-1-1-1.5-1.5c-0.5,0.4-1,0.8-1.5,1.1
				c-0.3-0.4-0.9-1.2-1.3-1.5c1.4-0.8,2.9-2,3.9-3.3l-2.8,0.1c-0.1,0.2-0.2,0.3-0.3,0.3l-0.6-2.3c0.8,0,1.7,0,2.7,0
				c0.3-0.2,0.5-0.4,0.8-0.6c-0.8-0.9-2.1-1.9-3.2-2.6l1.3-1.4c0.3,0.2,0.6,0.4,0.9,0.6c0.7-0.8,1.5-1.9,2-2.7l2.1,1.1
				c-0.1,0.1-0.3,0.2-0.5,0.2c-0.5,0.7-1.5,1.7-2.2,2.5c0.4,0.3,0.8,0.7,1.1,1c1.2-1.1,2.3-2.3,3.1-3.3l2.2,1.2
				c-0.1,0.1-0.3,0.2-0.6,0.2c-1.1,1.2-2.7,2.7-4.3,4l3.3-0.1c-0.3-0.4-0.6-0.8-0.9-1.2l1.7-0.9c1.1,1.2,2.3,2.8,2.8,4l-1.8,1
				c-0.1-0.3-0.3-0.8-0.6-1.2l-3.3,0.2c-0.1,0.1-0.2,0.2-0.5,0.2c-0.2,0.3-0.5,0.6-0.7,1h3.5L604.5,497.2z M599.4,498.9
				c0.5,0.6,1.1,1.2,1.8,1.7c0.7-0.5,1.3-1.1,1.7-1.7H599.4z"/>
		</g>
		<circle class="st3" cx="565.6" cy="44.5" r="5"/>
		<line class="st4" x1="139" y1="432.3" x2="283" y2="366.3"/>
		<line class="st4" x1="283" y1="366.3" x2="424" y2="228.3"/>
		<line class="st4" x1="424" y1="228.3" x2="566" y2="44.3"/>
		
			<rect x="120.8" y="209.8" transform="matrix(0.7049 -0.7093 0.7093 0.7049 -68.1417 285.5349)" class="st5" width="376.6" height="29.8"/>
		<polygon class="st5" points="481,43.6 403.6,63.1 478.4,123.3 		"/>
	</g>
</g>
</svg>
