<svg xmlns="http://www.w3.org/2000/svg" viewBox="0 0 665.75 454.85"><defs><style>.cls-1,.cls-3{font-size:21px;font-family:KozGoPr6N-Regular-83pv-RKSJ-H, Kozuka Gothic Pr6N;}.cls-1{letter-spacing:0.02em;}.cls-2{font-size:27px;fill:#479ef7;font-family:KozGoPr6N-Medium-83pv-RKSJ-H, Kozuka Gothic Pr6N;letter-spacing:0.03em;}.cls-3{letter-spacing:0.27em;}.cls-4{letter-spacing:0.03em;}.cls-5,.cls-7{fill:none;stroke-miterlimit:10;}.cls-5{stroke:#000;}.cls-6{fill:#666;}.cls-7{stroke:#666;}.cls-8{fill:#61b3f9;}</style></defs><g id="レイヤー_2" data-name="レイヤー 2"><g id="レイヤー_1-2" data-name="レイヤー 1"><text class="cls-1" transform="translate(113.16 447.73)">導入前</text><text class="cls-1" transform="translate(26.86 415.48)">０</text><text class="cls-1" transform="translate(12.1 349.31)">500</text><text class="cls-1" transform="translate(0 283.15)">1000</text><text class="cls-1" transform="translate(0 216.98)">1500</text><text class="cls-1" transform="translate(0 150.81)">2000</text><text class="cls-1" transform="translate(0 84.65)">2500</text><text class="cls-1" transform="translate(0 18.48)">3000</text><text class="cls-2" transform="translate(167 380.48)">395</text><text class="cls-2" transform="translate(300 327.48)">802</text><text class="cls-2" transform="translate(424 247.48)">1480</text><text class="cls-2" transform="translate(587 58.48)">2719</text><text class="cls-3" transform="translate(242.23 447.73)">3<tspan class="cls-4" x="17.35" y="0">か月後</tspan></text><text class="cls-3" transform="translate(388.65 447.73)">6<tspan class="cls-4" x="17.35" y="0">か月後</tspan></text><text class="cls-3" transform="translate(535.06 447.73)">1<tspan class="cls-4" x="17.35" y="0">年後</tspan></text><line class="cls-5" x1="60.75" y1="410.98" x2="665.75" y2="410.98"/><line class="cls-5" x1="60.75" y1="345.48" x2="665.75" y2="345.48"/><line class="cls-5" x1="60.75" y1="279.98" x2="665.75" y2="279.98"/><line class="cls-5" x1="60.75" y1="214.48" x2="665.75" y2="214.48"/><line class="cls-5" x1="60.75" y1="148.98" x2="665.75" y2="148.98"/><line class="cls-5" x1="60.75" y1="83.48" x2="665.75" y2="83.48"/><line class="cls-5" x1="60.75" y1="17.98" x2="665.75" y2="17.98"/><circle class="cls-6" cx="140.84" cy="368.98" r="5"/><circle class="cls-6" cx="278.27" cy="311.98" r="5"/><circle class="cls-6" cx="413.41" cy="222.98" r="5"/><circle class="cls-6" cx="570.94" cy="45.98" r="5"/><line class="cls-7" x1="139.5" y1="368.48" x2="277.5" y2="311.48"/><line class="cls-7" x1="277.5" y1="311.48" x2="413.5" y2="222.48"/><line class="cls-7" x1="412.5" y1="222.48" x2="569.5" y2="48.48"/><rect class="cls-8" x="90.62" y="186.71" width="376.64" height="29.8" transform="translate(-64.71 220.63) rotate(-39.03)"/><polygon class="cls-8" points="469.3 39.98 390.29 51.13 458.15 119 469.3 39.98"/></g></g></svg>