<svg xmlns="http://www.w3.org/2000/svg" viewBox="0 0 658.29 504.63"><defs><style>.cls-1,.cls-5{font-size:21px;font-family:KozGoPr6N-Regular-83pv-RKSJ-H, Kozuka Gothic Pr6N;}.cls-1{letter-spacing:0.03em;}.cls-2{font-size:27px;fill:#479ef7;font-family:KozGoPr6N-Medium-83pv-RKSJ-H, Kozuka Gothic Pr6N;letter-spacing:0.02em;}.cls-3,.cls-7{fill:none;stroke-miterlimit:10;}.cls-3{stroke:#000;}.cls-4{fill:#666;}.cls-5{letter-spacing:0.28em;}.cls-6{letter-spacing:0.02em;}.cls-7{stroke:#666;}.cls-8{fill:#61b3f9;}</style></defs><g id="レイヤー_2" data-name="レイヤー 2"><g id="レイヤー_1-2" data-name="レイヤー 1"><text class="cls-1" transform="translate(10.2 465.8)">800</text><text class="cls-1" transform="translate(0 400.74)">1000</text><text class="cls-1" transform="translate(0 335.68)">1200</text><text class="cls-1" transform="translate(0 270.62)">1400</text><text class="cls-1" transform="translate(0 205.56)">1600</text><text class="cls-1" transform="translate(0 140.49)">1800</text><text class="cls-1" transform="translate(0 75.43)">2000</text><text class="cls-2" transform="translate(156.69 445.15)">920</text><text class="cls-2" transform="translate(295.33 379.27)">1100</text><text class="cls-2" transform="translate(428.08 247.51)">1507</text><text class="cls-2" transform="translate(568.69 61.67)">2098</text><line class="cls-3" x1="62.15" y1="461.38" x2="658.17" y2="461.38"/><line class="cls-3" x1="62.15" y1="396.98" x2="658.17" y2="396.98"/><line class="cls-3" x1="62.15" y1="332.57" x2="658.17" y2="332.57"/><line class="cls-3" x1="62.15" y1="268.16" x2="658.17" y2="268.16"/><line class="cls-3" x1="62.15" y1="203.76" x2="658.17" y2="203.76"/><line class="cls-3" x1="62.15" y1="139.35" x2="658.17" y2="139.35"/><line class="cls-3" x1="62.15" y1="74.94" x2="658.17" y2="74.94"/><text class="cls-1" transform="translate(0 18.48)">2500</text><line class="cls-3" x1="62.27" y1="17.99" x2="658.29" y2="17.99"/><text class="cls-1" transform="translate(108.23 497.52)">導入前</text><circle class="cls-4" cx="140.52" cy="428.52" r="4.92"/><text class="cls-5" transform="translate(250.72 497.52)">1<tspan class="cls-6" x="17.35" y="0">か月</tspan></text><circle class="cls-4" cx="280.92" cy="363.62" r="4.92"/><text class="cls-5" transform="translate(388.53 497.52)">3<tspan class="cls-6" x="17.35" y="0">か月</tspan></text><circle class="cls-4" cx="418.73" cy="227.93" r="4.92"/><text class="cls-5" transform="translate(527.33 497.52)">6<tspan class="cls-6" x="17.35" y="0">か月</tspan></text><circle class="cls-4" cx="557.53" cy="46.67" r="4.92"/><line class="cls-7" x1="136.65" y1="428.03" x2="278.25" y2="363.13"/><line class="cls-7" x1="278.25" y1="363.13" x2="416.89" y2="227.43"/><line class="cls-7" x1="416.89" y1="227.43" x2="556.52" y2="46.51"/><rect class="cls-8" x="118.74" y="209.16" width="370.35" height="29.3" transform="translate(-69.06 281.62) rotate(-45.18)"/><polygon class="cls-8" points="472.98 45.73 396.91 64.96 470.41 124.16 472.98 45.73"/></g></g></svg>